<svg xmlns="http://www.w3.org/2000/svg" viewBox="0 0 72 90"><defs><style>.c1{fill:#555}.c2{fill:#6b6b6b}.c3{fill:#444}.c4{fill:#808080}.c5{fill:#999}.c6{fill:#4a4a4a}</style></defs><g id="Layer_2" data-name="Layer 2"><g id="RankIcons"><polygon class="c1" points="36 0 36 54 0 54 36 0"/><polygon class="c2" points="72 54 36 54 36 0 72 54"/><polygon class="c3" points="72 54 36 90 36 54 72 54"/><polygon class="c1" points="36 54 36 90 0 54 36 54"/><polygon class="c4" points="60 66 36 90 12 66 36 30 60 66"/><polygon class="c5" points="52 62 36 78 20 62 36 38 52 62"/><polygon class="c6" points="44 58 36 66 28 58 36 46 44 58"/></g></g></svg>