<svg xmlns="http://www.w3.org/2000/svg" viewBox="0 0 72 90"><defs><style>.c1{fill:#996628}.c2{fill:#b87333}.c3{fill:#7a521f}.c4{fill:#d4873d}.c5{fill:#e09850}.c6{fill:#cc7a2a}</style></defs><g id="Layer_2" data-name="Layer 2"><g id="RankIcons"><polygon class="c1" points="36 0 36 54 0 54 36 0"/><polygon class="c2" points="72 54 36 54 36 0 72 54"/><polygon class="c3" points="72 54 36 90 36 54 72 54"/><polygon class="c1" points="36 54 36 90 0 54 36 54"/><polygon class="c4" points="60 66 36 90 12 66 36 30 60 66"/><polygon class="c5" points="36 46 48 62 36 74 24 62 36 46"/><polygon class="c6" points="36 50 44 62 36 70 28 62 36 50"/></g></g></svg>