<svg xmlns="http://www.w3.org/2000/svg" viewBox="0 0 145.13 121.33"><defs><style>.c1{fill:#f9dd7a}.c2{fill:#faf079}.c3{fill:#4488ff}.c4{fill:#0f52ba}.c5{fill:#0d469e}.c6{fill:#0b3a82}.c7{fill:#0c408f}.c8{fill:#092e6a}.c9{fill:#062252}.c10{fill:#d67b2d}.c11{fill:#66aaff;opacity:0.25}.c12{fill:#88bbff}</style></defs><g id="Layer_2" data-name="Layer 2"><g id="RankIcons"><path class="c1" d="M104.42,34.45,92.57,43.33,63.68,0H81.46Z"/><path class="c2" d="M72.57,13.33q-10,15-20,30L40.71,34.45,63.68,0Z"/><polygon class="c3" points="130.61 24.57 96.91 49.85 92.57 43.33 126.57 17.83 130.61 24.57"/><polygon class="c4" points="126.57 67.33 113.07 80.83 95.07 80.83 108.57 67.33 126.57 67.33"/><polygon class="c5" points="145.13 48.77 126.57 67.33 108.57 67.33 96.91 49.85 130.61 24.57 145.13 48.77"/><polygon class="c3" points="14.52 24.57 48.22 49.85 52.57 43.33 18.57 17.83 14.52 24.57"/><polygon class="c4" points="50.07 80.83 32.07 80.83 18.57 67.33 36.57 67.33 50.07 80.83"/><polygon class="c5" points="48.22 49.85 36.57 67.33 18.57 67.33 0 48.77 14.52 24.57 48.22 49.85"/><path class="c1" points="126.57 80.83 108.57 107.83 95.07 107.83 81.57 94.33 95.07 80.83 126.57 80.83"/><polygon class="c4" points="90.56 103.33 72.56 121.33 54.56 103.33 63.56 94.33 72.56 103.33 81.56 94.33 90.56 103.33"/><polygon class="c8" points="72.57 13.33 72.57 67.33 36.57 67.33 72.57 13.33"/><polygon class="c6" points="108.57 67.33 72.57 67.33 72.57 13.33 108.57 67.33"/><polygon class="c7" points="108.57 67.33 72.57 103.33 72.57 67.33 108.57 67.33"/><polygon class="c9" points="72.57 67.33 72.57 103.33 36.57 67.33 72.57 67.33"/><path class="c10" d="M72.57,13.33q-10,15-20,30L40.71,34.45,63.68,0Z"/><polygon class="c10" points="63.57 94.33 50.07 107.83 36.57 107.83 18.57 80.83 50.07 80.83 63.57 94.33"/><path class="c4" d="M120.56,22.35l-16.14,12.1-8.06-12.1Z"/><path class="c4" d="M24.57,22.35l16.14,12.1,8.06-12.1Z"/><polygon class="c11" points="60.57 54.33 72.57 66.33 84.57 54.33 72.57 42.33 60.57 54.33"/><polygon class="c12" points="66.57 54.33 72.57 60.33 78.57 54.33 72.57 48.33 66.57 54.33"/></g></g></svg>