<svg xmlns="http://www.w3.org/2000/svg" viewBox="0 0 72 90"><defs><style>.c1{fill:#999}.c2{fill:#c0c0c0}.c3{fill:#7a7a7a}.c4{fill:#ccc}.c5{fill:#d9d9d9}.c6{fill:#adadad}</style></defs><g id="Layer_2" data-name="Layer 2"><g id="RankIcons"><polygon class="c1" points="36 0 36 54 0 54 36 0"/><polygon class="c2" points="72 54 36 54 36 0 72 54"/><polygon class="c3" points="72 54 36 90 36 54 72 54"/><polygon class="c1" points="36 54 36 90 0 54 36 54"/><polygon class="c4" points="60 66 36 90 12 66 36 30 60 66"/><polygon class="c5" points="36 46 46 54 52 64 44 74 28 74 20 64 26 54 36 46"/><polygon class="c6" points="36 50 42 56 46 64 40 70 32 70 26 64 30 56 36 50"/></g></g></svg>